<?xml version="1.0" encoding="UTF-8" standalone="no"?>
<!DOCTYPE svg PUBLIC "-//W3C//DTD SVG 1.1//EN" "http://www.w3.org/Graphics/SVG/1.1/DTD/svg11.dtd">
<svg xmlns="http://www.w3.org/2000/svg" version="1.1" viewBox="0 0 350 350" width="350" height="350">
<g stroke-width="2.00" fill="none" stroke-linecap="butt">
<path stroke="#a4c9e2" vector-effect="non-scaling-stroke" d="
  M 89.00 233.54
  Q 121.96 252.75 155.02 271.78
  C 161.34 275.41 164.21 277.83 170.46 274.23
  Q 213.33 249.52 256.13 224.68
  C 258.16 223.50 260.91 221.29 260.92 219.25
  Q 261.09 171.22 260.96 123.17
  Q 260.95 119.91 258.53 117.72
  Q 257.15 116.47 254.16 114.77
  Q 238.33 105.78 222.50 96.79"
/>
<path stroke="#94d2e9" vector-effect="non-scaling-stroke" d="
  M 222.50 96.79
  Q 203.85 85.93 185.20 75.04
  C 179.30 71.60 175.47 72.86 169.52 76.30
  Q 139.59 93.59 109.71 110.98
  C 104.47 114.03 99.87 118.55 104.24 124.78
  C 107.68 129.68 112.60 128.06 117.27 125.38
  Q 147.50 108.02 177.76 90.46
  A 1.00 1.00 0.0 0 1 178.76 90.46
  L 210.70 108.84"
/>
<path stroke="#a4c9e2" vector-effect="non-scaling-stroke" d="
  M 210.70 108.84
  L 242.23 127.07
  Q 244.75 128.52 244.75 131.44
  L 244.73 211.80
  A 1.02 1.00 75.0 0 1 244.24 212.67
  Q 209.61 232.75 173.81 253.31
  Q 168.50 256.36 164.98 258.10
  A 1.02 1.01 -42.9 0 1 164.04 258.07
  L 95.29 218.50"
/>
<path stroke="#93d3e9" vector-effect="non-scaling-stroke" d="
  M 95.29 218.50
  L 78.49 208.52
  A 1.00 1.00 0.0 0 1 78.00 207.66
  L 78.00 101.84
  A 1.01 1.00 75.0 0 1 78.50 100.97
  L 177.89 43.76
  A 1.00 1.00 0.0 0 1 178.89 43.76
  L 248.21 83.50"
/>
<path stroke="#a9c6df" vector-effect="non-scaling-stroke" d="
  M 248.21 83.50
  L 284.50 104.55
  A 1.01 1.00 -75.0 0 1 285.00 105.42
  L 285.00 235.41
  A 1.00 0.99 -15.3 0 1 284.50 236.27
  L 165.28 304.99
  A 1.01 1.00 45.3 0 1 164.28 304.98
  L 140.25 291.04"
/>
<path stroke="#9dcde5" vector-effect="non-scaling-stroke" d="
  M 140.25 291.04
  Q 87.32 260.58 34.47 230.01
  C 26.76 225.56 18.48 233.47 22.79 240.78
  C 24.07 242.93 26.49 244.31 28.67 245.58
  Q 78.29 274.55 128.21 303.00"
/>
<path stroke="#a9c6df" vector-effect="non-scaling-stroke" d="
  M 128.21 303.00
  L 163.57 323.35
  A 1.01 0.99 50.0 0 0 164.40 323.43
  Q 169.30 321.68 176.35 317.62
  Q 236.69 282.86 296.96 247.95
  C 301.68 245.21 300.98 242.26 300.98 236.38
  Q 301.07 126.46 300.98 99.56
  C 300.96 94.74 298.19 93.71 293.77 91.11
  Q 274.22 79.62 254.50 68.46"
/>
<path stroke="#93d3e9" vector-effect="non-scaling-stroke" d="
  M 254.50 68.46
  Q 218.87 47.68 183.05 27.21
  C 176.73 23.60 171.84 28.18 166.43 31.29
  Q 117.66 59.27 69.11 87.64
  C 64.36 90.42 62.01 92.36 62.01 97.25
  Q 61.96 153.30 62.03 209.36
  C 62.04 214.14 61.83 217.57 65.54 219.92
  Q 74.84 225.79 89.00 233.54"
/>
<path stroke="#3d9ac8" vector-effect="non-scaling-stroke" d="
  M 254.50 68.46
  Q 252.56 67.78 253.04 68.46
  A 0.42 0.41 56.1 0 1 252.93 69.04
  Q 252.60 69.26 252.76 69.74
  A 0.84 0.84 0.0 0 1 252.73 70.29
  Q 250.48 75.62 248.95 81.19
  Q 248.76 81.86 248.23 81.99
  A 0.64 0.64 0.0 0 0 247.85 82.97
  L 248.21 83.50"
/>
<path stroke="#389dcb" vector-effect="non-scaling-stroke" d="
  M 95.29 218.50
  L 95.23 224.29
  A 0.21 0.21 0.0 0 1 95.02 224.50
  L 94.74 224.50
  A 0.25 0.25 0.0 0 0 94.49 224.67
  Q 92.79 229.76 89.00 233.54"
/>
<path stroke="#4794c4" vector-effect="non-scaling-stroke" d="
  M 128.21 303.00
  Q 127.72 300.21 129.10 301.12
  A 1.00 1.00 0.0 0 0 130.44 300.90
  Q 132.20 298.64 134.00 296.41
  C 135.74 294.25 138.33 293.31 140.25 291.04"
/>
<path stroke="#389ccb" vector-effect="non-scaling-stroke" d="
  M 222.50 96.79
  L 222.23 99.30
  A 1.02 1.02 0.0 0 1 221.61 100.12
  Q 215.05 102.84 210.70 108.84"
/>
</g>
<path fill="rgba(0,0,0,0)" d="
  M 0.00 0.00
  L 350.00 0.00
  L 350.00 350.00
  L 0.00 350.00
  L 0.00 0.00
  Z
  M 89.00 233.54
  Q 121.96 252.75 155.02 271.78
  C 161.34 275.41 164.21 277.83 170.46 274.23
  Q 213.33 249.52 256.13 224.68
  C 258.16 223.50 260.91 221.29 260.92 219.25
  Q 261.09 171.22 260.96 123.17
  Q 260.95 119.91 258.53 117.72
  Q 257.15 116.47 254.16 114.77
  Q 238.33 105.78 222.50 96.79
  Q 203.85 85.93 185.20 75.04
  C 179.30 71.60 175.47 72.86 169.52 76.30
  Q 139.59 93.59 109.71 110.98
  C 104.47 114.03 99.87 118.55 104.24 124.78
  C 107.68 129.68 112.60 128.06 117.27 125.38
  Q 147.50 108.02 177.76 90.46
  A 1.00 1.00 0.0 0 1 178.76 90.46
  L 210.70 108.84
  L 242.23 127.07
  Q 244.75 128.52 244.75 131.44
  L 244.73 211.80
  A 1.02 1.00 75.0 0 1 244.24 212.67
  Q 209.61 232.75 173.81 253.31
  Q 168.50 256.36 164.98 258.10
  A 1.02 1.01 -42.9 0 1 164.04 258.07
  L 95.29 218.50
  L 78.49 208.52
  A 1.00 1.00 0.0 0 1 78.00 207.66
  L 78.00 101.84
  A 1.01 1.00 75.0 0 1 78.50 100.97
  L 177.89 43.76
  A 1.00 1.00 0.0 0 1 178.89 43.76
  L 248.21 83.50
  L 284.50 104.55
  A 1.01 1.00 -75.0 0 1 285.00 105.42
  L 285.00 235.41
  A 1.00 0.99 -15.3 0 1 284.50 236.27
  L 165.28 304.99
  A 1.01 1.00 45.3 0 1 164.28 304.98
  L 140.25 291.04
  Q 87.32 260.58 34.47 230.01
  C 26.76 225.56 18.48 233.47 22.79 240.78
  C 24.07 242.93 26.49 244.31 28.67 245.58
  Q 78.29 274.55 128.21 303.00
  L 163.57 323.35
  A 1.01 0.99 50.0 0 0 164.40 323.43
  Q 169.30 321.68 176.35 317.62
  Q 236.69 282.86 296.96 247.95
  C 301.68 245.21 300.98 242.26 300.98 236.38
  Q 301.07 126.46 300.98 99.56
  C 300.96 94.74 298.19 93.71 293.77 91.11
  Q 274.22 79.62 254.50 68.46
  Q 218.87 47.68 183.05 27.21
  C 176.73 23.60 171.84 28.18 166.43 31.29
  Q 117.66 59.27 69.11 87.64
  C 64.36 90.42 62.01 92.36 62.01 97.25
  Q 61.96 153.30 62.03 209.36
  C 62.04 214.14 61.83 217.57 65.54 219.92
  Q 74.84 225.79 89.00 233.54
  Z"
/>
<path fill="#27a6d2" d="
  M 254.50 68.46
  Q 252.56 67.78 253.04 68.46
  A 0.42 0.41 56.1 0 1 252.93 69.04
  Q 252.60 69.26 252.76 69.74
  A 0.84 0.84 0.0 0 1 252.73 70.29
  Q 250.48 75.62 248.95 81.19
  Q 248.76 81.86 248.23 81.99
  A 0.64 0.64 0.0 0 0 247.85 82.97
  L 248.21 83.50
  L 178.89 43.76
  A 1.00 1.00 0.0 0 0 177.89 43.76
  L 78.50 100.97
  A 1.01 1.00 75.0 0 0 78.00 101.84
  L 78.00 207.66
  A 1.00 1.00 0.0 0 0 78.49 208.52
  L 95.29 218.50
  L 95.23 224.29
  A 0.21 0.21 0.0 0 1 95.02 224.50
  L 94.74 224.50
  A 0.25 0.25 0.0 0 0 94.49 224.67
  Q 92.79 229.76 89.00 233.54
  Q 74.84 225.79 65.54 219.92
  C 61.83 217.57 62.04 214.14 62.03 209.36
  Q 61.96 153.30 62.01 97.25
  C 62.01 92.36 64.36 90.42 69.11 87.64
  Q 117.66 59.27 166.43 31.29
  C 171.84 28.18 176.73 23.60 183.05 27.21
  Q 218.87 47.68 254.50 68.46
  Z"
/>
<path fill="#538dbe" d="
  M 254.50 68.46
  Q 274.22 79.62 293.77 91.11
  C 298.19 93.71 300.96 94.74 300.98 99.56
  Q 301.07 126.46 300.98 236.38
  C 300.98 242.26 301.68 245.21 296.96 247.95
  Q 236.69 282.86 176.35 317.62
  Q 169.30 321.68 164.40 323.43
  A 1.01 0.99 50.0 0 1 163.57 323.35
  L 128.21 303.00
  Q 127.72 300.21 129.10 301.12
  A 1.00 1.00 0.0 0 0 130.44 300.90
  Q 132.20 298.64 134.00 296.41
  C 135.74 294.25 138.33 293.31 140.25 291.04
  L 164.28 304.98
  A 1.01 1.00 45.3 0 0 165.28 304.99
  L 284.50 236.27
  A 1.00 0.99 -15.3 0 0 285.00 235.41
  L 285.00 105.42
  A 1.01 1.00 -75.0 0 0 284.50 104.55
  L 248.21 83.50
  L 247.85 82.97
  A 0.64 0.64 0.0 0 1 248.23 81.99
  Q 248.76 81.86 248.95 81.19
  Q 250.48 75.62 252.73 70.29
  A 0.84 0.84 0.0 0 0 252.76 69.74
  Q 252.60 69.26 252.93 69.04
  A 0.42 0.41 56.1 0 0 253.04 68.46
  Q 252.56 67.78 254.50 68.46
  Z"
/>
<path fill="#28a4d2" d="
  M 222.50 96.79
  L 222.23 99.30
  A 1.02 1.02 0.0 0 1 221.61 100.12
  Q 215.05 102.84 210.70 108.84
  L 178.76 90.46
  A 1.00 1.00 0.0 0 0 177.76 90.46
  Q 147.50 108.02 117.27 125.38
  C 112.60 128.06 107.68 129.68 104.24 124.78
  C 99.87 118.55 104.47 114.03 109.71 110.98
  Q 139.59 93.59 169.52 76.30
  C 175.47 72.86 179.30 71.60 185.20 75.04
  Q 203.85 85.93 222.50 96.79
  Z"
/>
<path fill="#4893c4" d="
  M 222.50 96.79
  Q 238.33 105.78 254.16 114.77
  Q 257.15 116.47 258.53 117.72
  Q 260.95 119.91 260.96 123.17
  Q 261.09 171.22 260.92 219.25
  C 260.91 221.29 258.16 223.50 256.13 224.68
  Q 213.33 249.52 170.46 274.23
  C 164.21 277.83 161.34 275.41 155.02 271.78
  Q 121.96 252.75 89.00 233.54
  Q 92.79 229.76 94.49 224.67
  A 0.25 0.25 0.0 0 1 94.74 224.50
  L 95.02 224.50
  A 0.21 0.21 0.0 0 0 95.23 224.29
  L 95.29 218.50
  L 164.04 258.07
  A 1.02 1.01 -42.9 0 0 164.98 258.10
  Q 168.50 256.36 173.81 253.31
  Q 209.61 232.75 244.24 212.67
  A 1.02 1.00 75.0 0 0 244.73 211.80
  L 244.75 131.44
  Q 244.75 128.52 242.23 127.07
  L 210.70 108.84
  Q 215.05 102.84 221.61 100.12
  A 1.02 1.02 0.0 0 0 222.23 99.30
  L 222.50 96.79
  Z"
/>
<path fill="#3a9aca" d="
  M 140.25 291.04
  C 138.33 293.31 135.74 294.25 134.00 296.41
  Q 132.20 298.64 130.44 300.90
  A 1.00 1.00 0.0 0 1 129.10 301.12
  Q 127.72 300.21 128.21 303.00
  Q 78.29 274.55 28.67 245.58
  C 26.49 244.31 24.07 242.93 22.79 240.78
  C 18.48 233.47 26.76 225.56 34.47 230.01
  Q 87.32 260.58 140.25 291.04
  Z"
/>
</svg>
